Coordinates
version=1
nRows=10
nColumns=33
inDegrees=yes

Units are S.I. units (second, meters, Newtons, ...)
Angles are in degrees.

endheader
time	ground_thorax_rot_x	ground_thorax_rot_y	ground_thorax_rot_z	ground_thorax_tx	ground_thorax_ty	ground_thorax_tz	clav_prot_r	clav_elev_r	scapula_abduction_r	scapula_elevation_r	scapula_upward_rot_r	scapula_winging_r	shoulder_elv_r	plane_of_elev_r	axial_rot_r	elbow_flexion_r	pro_sup_r	wrist_flex_r	wrist_dev_r	clav_prot_l	clav_elev_l	scapula_abduction_l	scapula_elevation_l	scapula_upward_rot_l	scapula_winging_l	shoulder_elv_l	plane_of_elev_l	axial_rot_l	elbow_flexion_l	pro_sup_l	wrist_flex_l	wrist_dev_l
      5.31000000	    -40.89149839	    -11.78137482	     15.92132746	   -228.71590200	    825.89744274	     -0.98446919	      9.72562414	    -45.00000000	     39.57356328	    -45.00000000	    -45.00000000	   2059.04905506	  -2985.35048115	    147.59392003	   -122.33229235	   1457.53887986	     65.35881633	     18.16652524	      4.08838306	     15.72428638	     38.49231280	    -38.23126610	    -45.00000000	    -45.00000000	  -1714.06732882	  -1008.15328472	     26.59493385	     -1.92711588	   1805.33361455	   -331.84309467	      7.79138769	    -23.10836817
      5.32000000	    -40.89300336	    -11.92256355	     16.04898133	   -228.77888040	    825.05973322	     -0.86245718	      9.20831372	    -45.00000000	     39.32998971	    -45.00000000	    -45.00000000	   2059.17235627	  -2985.32624130	    147.70017141	   -122.46696605	   1457.61772772	     66.87642540	     18.23159414	      4.13295654	     15.71422766	     38.24452199	    -38.05564120	    -45.00000000	    -45.00000000	  -1714.27475331	  -1008.04096482	     26.47086326	     -2.57091064	   1805.52340804	   -330.79332708	      7.46844276	    -23.40568040
      5.33000000	    -40.90120910	    -11.90580259	     15.95771279	   -228.59430274	    824.21380853	     -0.78701303	      9.42185013	    -45.00000000	     39.38863222	    -45.00000000	    -45.00000000	   2059.11856501	  -2985.52338486	    147.65777104	   -122.54021927	   1457.84737226	     68.34970404	     18.12213972	      4.03005235	     15.72136427	     38.47233142	    -38.14489389	    -45.00000000	    -45.00000000	  -1714.25354539	  -1008.26423752	     26.38733619	     -2.97887140	   1805.71056608	   -329.89755698	      7.22385901	    -23.32734048
      5.34000000	    -40.82697780	    -12.03640487	     16.17864443	   -228.21475622	    823.38013488	     -0.76949372	      9.34720434	    -45.00000000	     39.30717860	    -45.00000000	    -45.00000000	   2059.21976064	  -2985.54291006	    147.83055369	   -122.66584326	   1457.97532551	     69.83268325	     18.05855239	      3.99999583	     15.78268009	     38.23832362	    -38.01410470	    -45.00000000	    -45.00000000	  -1714.42447719	  -1008.22128094	     26.35295154	     -3.28037148	   1805.89852737	   -329.18940489	      6.96695779	    -23.43485807
      5.35000000	    -40.82352273	    -12.00670473	     16.09726723	   -227.69459006	    822.59617664	     -0.81393113	      9.39465116	    -45.00000000	     39.29211275	    -45.00000000	    -45.00000000	   2059.23000568	  -2985.69006641	    147.70712855	   -122.81118831	   1458.14294259	     71.28645740	     17.95810138	      3.94265824	     15.73432353	     38.44355804	    -38.08476314	    -45.00000000	    -45.00000000	  -1714.45862735	  -1008.27040610	     26.30157388	     -3.55811439	   1806.05762163	   -328.58041051	      6.77411320	    -23.42033585
      5.36000000	    -40.74475387	    -12.17192115	     16.28814206	   -227.08397771	    821.88973670	     -0.91617716	      9.38087288	    -45.00000000	     39.28695678	    -45.00000000	    -45.00000000	   2059.34386157	  -2985.69287006	    147.86183111	   -122.98104688	   1458.26664929	     72.72625370	     17.85759944	      3.90879991	     15.80802574	     38.23534571	    -37.96851642	    -45.00000000	    -45.00000000	  -1714.56747768	  -1008.27331679	     26.27266372	     -3.77773037	   1806.15980602	   -328.07708862	      6.54033515	    -23.42273273
      5.37000000	    -40.77376461	    -12.10496604	     16.23387883	   -226.42660467	    821.28988129	     -1.06583354	      9.44919695	    -45.00000000	     39.25574211	    -45.00000000	    -45.00000000	   2059.33366188	  -2985.84686589	    147.71463489	   -123.08261651	   1458.44885736	     74.11834236	     17.75865223	      3.87063025	     15.74022549	     38.39016918	    -38.03985211	    -45.00000000	    -45.00000000	  -1714.61128047	  -1008.20081994	     26.19830150	     -3.96107023	   1806.34586632	   -327.64185627	      6.34032160	    -23.40897227
      5.38000000	    -40.73676744	    -12.22135175	     16.32370273	   -225.75750013	    820.82384795	     -1.24668290	      9.42542767	    -45.00000000	     39.30459080	    -45.00000000	    -45.00000000	   2059.48503281	  -2985.79558378	    147.80973466	   -123.19241642	   1458.67276623	     75.59998007	     17.62496129	      3.81371895	     15.78673270	     38.25507725	    -37.92798716	    -45.00000000	    -45.00000000	  -1714.64420565	  -1008.18638605	     26.23456167	     -4.19384630	   1806.42074672	   -327.19989302	      6.15165955	    -23.40023602
      5.39000000	    -40.71700813	    -12.14612004	     16.25039160	   -225.08854090	    820.50253763	     -1.44266693	      9.51836691	    -45.00000000	     39.40440218	    -45.00000000	    -45.00000000	   2059.47143730	  -2985.87118239	    147.67924816	   -123.19942402	   1458.72432034	     77.00993581	     17.50814554	      3.79975800	     15.70296471	     38.40096993	    -37.94460428	    -45.00000000	    -45.00000000	  -1714.81032997	  -1008.06105980	     26.13415230	     -4.38989959	   1806.56234550	   -326.81421483	      5.96784391	    -23.39090643
      5.40000000	    -40.70354369	    -12.15772118	     16.26649631	   -224.41785734	    820.33006506	     -1.63887366	      9.49286850	    -45.00000000	     39.41704720	    -45.00000000	    -45.00000000	   2059.62436830	  -2985.69109035	    147.75341134	   -123.25507602	   1459.06532894	     78.42532647	     17.36728961	      3.70970842	     15.83593449	     38.21091862	    -38.12148736	    -45.00000000	    -45.00000000	  -1714.66241845	  -1008.28283707	     26.16562228	     -4.61411108	   1806.61810367	   -326.41548725	      5.82689704	    -23.38196728
